# xmcd
#
# Track frame offsets: 
#        150
#        9150
#        10707
#        29397
#        56952
#        71300
#        85870
#        102612
#        126535
#        153507
#
# Disc length: 2325 seconds
#
# Revision: 3
# Processed by: cddbd v1.5.2PL0 Copyright (c) Steve Scherf et al.
# Submitted via: ExactAudioCopyFreeDBPlugin 1.0
#
DISCID=7c09130a
DTITLE=Bobby Womack - Bobby Womack:  The Collection [BCM Records] [box
DTITLE=set]
DYEAR=1990
DGENRE=Soul
TTITLE0=Let It Out
TTITLE1=Intro
TTITLE2=Oh How I Miss You Baby
TTITLE3=California Dreaming
TTITLE4=Something
TTITLE5=Everybody's Talking
TTITLE6=Medley:  Laughing and Clowning - To Live the Past
TTITLE7=I'm a Midnight Mover
TTITLE8=The Preacher
TTITLE9=More Than I Can Stand
EXTD=
EXTT0=
EXTT1=
EXTT2=
EXTT3=
EXTT4=
EXTT5=
EXTT6=
EXTT7=
EXTT8=
EXTT9=
PLAYORDER=
